<?xml version="1.0" encoding="utf-8"?>
<!-- Generator: Adobe Illustrator 18.1.0, SVG Export Plug-In . SVG Version: 6.00 Build 0)  -->
<!DOCTYPE svg PUBLIC "-//W3C//DTD SVG 1.1//EN" "http://www.w3.org/Graphics/SVG/1.1/DTD/svg11.dtd">
<svg version="1.1" id="レイヤー_1" xmlns="http://www.w3.org/2000/svg" xmlns:xlink="http://www.w3.org/1999/xlink" x="0px"
	 y="0px" viewBox="0 0 823.3 350" enable-background="new 0 0 823.3 350" xml:space="preserve">
<path fill="#FFFFFF" d="M251,263.1c-45.9,0-81.9-36-81.9-81.9c0-46.3,36-82.6,81.9-82.6c45.9,0,81.9,36.3,81.9,82.6
	C332.9,227.1,296.9,263.1,251,263.1z M251,116.7c-35.2,0-61.8,27.6-61.8,64.2c0,36.6,26.5,64.2,61.8,64.2
	c35.2,0,61.8-27.6,61.8-64.2C312.7,144.2,286.2,116.7,251,116.7z"/>
<path fill="#FFFFFF" d="M440.2,263.1c-45.9,0-81.9-36-81.9-81.9c0-46.3,36-82.6,81.9-82.6c45.9,0,81.9,36.3,81.9,82.6
	C522.1,227.1,486.2,263.1,440.2,263.1z M440.2,116.7c-35.2,0-61.8,27.6-61.8,64.2c0,36.6,26.5,64.2,61.8,64.2
	c35.2,0,61.8-27.6,61.8-64.2C502,144.2,475.4,116.7,440.2,116.7z"/>
<path fill="#FFFFFF" d="M172.9,85.4C172.9,38.3,134.1,0,86.4,0C38.8,0,0,38.3,0,85.4C0,131.7,35.5,168,80.9,168
	c6.9,0,14.1-1.1,21.5-3.3c0.4-0.1,0.7-0.2,1.1-0.2c1,0,2,0.4,2.7,1.1l0.7,0.7c1.3,1.3,1.5,3.4,0.4,4.9l-46,63.2l-7.3,10.4
	c-2.5,3.4-1.7,8.1,1.7,10.6l3.1,2.2c3.4,2.5,8.1,1.7,10.6-1.7l7.8-10.8l72.3-99.2C165.6,123.4,172.9,104.7,172.9,85.4z M86.4,148.5
	c-36.4,0-64.9-28.2-64.9-64.2c0-35.8,29.1-64.9,64.9-64.9s64.9,29.1,64.9,64.9C151.3,120.4,122.8,148.5,86.4,148.5z"/>
<path fill="#FFFFFF" d="M818.5,104.3l-3.4-1.7c-3.8-1.9-9.1-0.9-11,2.9l-50.9,112.6c-0.6,1.3-1.9,2.9-3.4,2.9c0,0,0,0-0.1,0
	c-1.4,0-2.8-1.5-3.4-2.8L691,105.5c-1.9-3.8-7.2-4.8-11-2.9l-3.4,1.7c-3.8,1.9-6,6.7-4.1,10.5l65.8,130.4c0.5,1.1,0.5,2.5,0,3.5
	l-50,101.3h23.1l111.5-235.2C824.5,111,822.3,106.2,818.5,104.3z"/>
<path fill="#FFFFFF" d="M656.1,242.5l-0.7-0.8l-62.5-70.6c-1.3-1.5-1.3-3.9,0.2-5.3l48.9-49.2c2.6-2.6,2-7.3-0.6-9.9l-2.4-2.4
	c-2.6-2.6-7.2-3.2-9.8-0.5l-57.5,58.4c-0.7,0.7-1.8,1.3-2.8,1.3c-0.5,0-1.4-0.1-1.8-0.3c-1.4-0.6-3-2-3-3.5V7c0-4.2-3-7-7.2-7h-3.8
	c-4.2,0-7,2.8-7,7v245.3c0,3.6,3.2,6.7,6.8,6.7h3.3c3.6,0,7.9-3.1,7.9-6.7v-56.8c0-1,1-1.9,1.8-2.6l7.8-7c0.7-0.7,1.8-0.8,2.8-0.8
	c0,0,0.1,0,0.1,0c1,0,2,0.1,2.7,0.9l62.1,70.1c2.7,3.1,7.9,2.6,11-0.2l2.8-2.5C658,250.6,658.8,245.6,656.1,242.5z"/>
</svg>
